<svg width="160" height="160" viewBox="0 0 160 160" fill="none" xmlns="http://www.w3.org/2000/svg">
<g clip-path="url(#clip0_997_9782)">
<path d="M144.144 135.402C123.338 175.638 77.7537 193.481 42.3281 175.254C6.90256 157.028 -4.94924 109.635 15.8564 69.3982C36.6621 29.1619 82.2465 11.3193 117.672 29.5456C153.098 47.7719 164.949 95.1653 144.144 135.402Z" fill="#FAFAFA"/>
<line y1="160.3" x2="160" y2="160.3" stroke="#DEDEDE"/>
<g opacity="0.1" filter="url(#filter0_f_997_9782)">
<ellipse cx="78.3999" cy="162.4" rx="64" ry="12" fill="#3E3E3E"/>
</g>
<path d="M94.7659 166.108L93.899 161.648C93.689 160.568 94.3916 159.526 95.4718 159.316L103.618 157.733C104.648 157.533 105.726 158.156 106.073 159.148L107.588 163.502C107.771 164.022 107.725 164.576 107.463 165.028C107.201 165.48 106.74 165.806 106.205 165.91L97.0976 167.68C96.0273 167.888 94.9758 167.188 94.7659 166.108ZM95.8053 160.979C95.6567 161.008 95.5529 161.162 95.5818 161.311L96.4486 165.77C96.4775 165.919 96.6314 166.023 96.7801 165.994L105.887 164.223C105.917 164.218 105.967 164.208 105.989 164.163C106.013 164.127 105.993 164.08 105.987 164.05L104.472 159.696C104.404 159.503 104.15 159.357 103.951 159.396L95.8053 160.979Z" fill="#414042"/>
<path d="M93.4655 159.419L92.4889 154.394C92.2789 153.314 92.9815 152.272 94.0617 152.062L101.246 150.666C102.287 150.464 103.355 151.089 103.694 152.093L105.346 156.996C105.518 157.508 105.471 158.062 105.199 158.516C104.938 158.968 104.475 159.284 103.939 159.388L95.7934 160.972C94.7251 161.189 93.6735 160.489 93.4655 159.419ZM94.3971 153.735C94.2485 153.764 94.1447 153.918 94.1736 154.067L95.1502 159.091C95.1791 159.24 95.333 159.344 95.4816 159.315L103.628 157.731C103.667 157.723 103.717 157.714 103.739 157.668C103.763 157.633 103.753 157.583 103.745 157.544L102.091 152.631C102.025 152.448 101.78 152.3 101.582 152.339L94.3971 153.735Z" fill="#414042"/>
<path d="M77.3234 164.572L69.1774 166.156C68.6422 166.26 68.1043 166.138 67.6824 165.819C67.2703 165.498 67.0097 165.003 66.9769 164.465L66.6623 159.301C66.6007 158.244 67.3663 157.262 68.397 157.061L75.5718 155.667C76.652 155.457 77.6936 156.159 77.9036 157.24L78.8802 162.264C79.1062 163.321 78.4036 164.362 77.3234 164.572ZM68.7305 158.724C68.5323 158.763 68.3608 158.992 68.3677 159.186L68.6743 164.361C68.682 164.401 68.6916 164.45 68.7172 164.476C68.7547 164.51 68.8042 164.5 68.8438 164.493L76.9899 162.909C77.1385 162.88 77.2423 162.726 77.2134 162.578L76.2368 157.553C76.2079 157.405 76.054 157.301 75.9054 157.33L68.7305 158.724Z" fill="#414042"/>
<path d="M78.328 54.5593C79.2116 54.4492 79.9576 54.5305 79.9782 54.7424C79.9989 54.9544 79.3027 55.5525 78.4174 55.6012C77.5302 55.6399 76.7902 55.5369 76.7792 55.3745C76.7682 55.2121 77.4463 54.6792 78.328 54.5593Z" fill="#414042"/>
<path d="M78.4368 56.019C76.3989 56.1168 76.3681 55.588 76.3613 55.394C76.3346 54.8335 77.365 54.3144 78.0785 54.1757C78.1479 54.1622 78.2073 54.1506 78.2767 54.1372C78.6175 54.0915 79.7486 53.9848 80.1844 54.3217C80.3066 54.4214 80.3831 54.5505 80.3903 54.6931C80.4447 55.2378 79.6001 55.8134 78.7974 55.9694C78.6903 56.0005 78.5596 56.0157 78.4368 56.019ZM78.389 54.9792C78.1275 55.0095 77.8954 55.0855 77.6969 55.1755C77.8948 55.1884 78.1206 55.1857 78.3959 55.1733C78.7226 55.1612 79.0103 55.0539 79.2228 54.9303C79.007 54.9311 78.7298 54.9336 78.389 54.9792Z" fill="#414042"/>
<path d="M78.4366 56.0705C76.3473 56.1681 76.3145 55.6294 76.3 55.3957C76.2656 54.7956 77.3139 54.2627 78.0571 54.1182C78.1265 54.1047 78.1959 54.0913 78.2672 54.0877C78.709 54.0327 79.7807 53.9375 80.2183 54.2844C80.3524 54.392 80.4308 54.531 80.4517 54.6915C80.51 55.2561 79.6297 55.8592 78.8171 56.0171C78.7001 56.0502 78.5693 56.0653 78.4366 56.0705Z" fill="#414042"/>
<path d="M78.4582 56.4982C76.7253 56.5779 75.9311 56.2489 75.8841 55.425C75.8299 54.4585 77.273 53.7872 78.218 53.6755C79.3117 53.5349 80.0714 53.634 80.4854 53.9649C80.7042 54.1384 80.8455 54.3886 80.8678 54.662C80.9544 55.4782 79.9108 56.2467 78.8901 56.4451C78.7612 56.4701 78.6087 56.4792 78.4582 56.4982ZM76.7278 55.3741C76.7386 55.588 77.419 55.7026 78.4073 55.6544C79.2906 55.5959 80.0601 55.0041 80.0298 54.7426C80.0202 54.693 80.0026 54.6553 79.9552 54.6234C79.7856 54.4918 79.2139 54.4075 78.3085 54.5115C78.249 54.5231 78.1995 54.5327 78.1401 54.5442C77.3751 54.6827 76.7171 55.1602 76.7278 55.3741Z" fill="#414042"/>
<path d="M52.5521 59.5698C53.4357 59.4597 54.1718 59.5429 54.2024 59.7529C54.223 59.9649 53.5268 60.563 52.6415 60.6117C51.7543 60.6504 51.0143 60.5474 51.0033 60.385C50.9923 60.2226 51.6704 59.6897 52.5521 59.5698Z" fill="#414042"/>
<path d="M52.6609 61.0295C50.623 61.1273 50.5923 60.5985 50.5854 60.4045C50.5587 59.844 51.5792 59.3268 52.3026 59.1862C52.372 59.1727 52.4314 59.1612 52.5008 59.1477C52.8416 59.102 53.9826 58.9933 54.4085 59.3322C54.5307 59.4319 54.6072 59.561 54.6143 59.7036C54.6688 60.2484 53.8242 60.8239 53.0215 60.9799C52.9144 61.011 52.7837 61.0262 52.6609 61.0295ZM52.6131 59.9897C52.3516 60.02 52.1195 60.096 51.921 60.186C52.119 60.1989 52.3447 60.1962 52.6199 60.1838C52.9467 60.1717 53.2344 60.0644 53.4469 59.9408C53.2311 59.9416 52.9539 59.9441 52.6131 59.9897Z" fill="#414042"/>
<path d="M52.6609 61.081C50.5715 61.1786 50.5388 60.6399 50.5341 60.4042C50.4998 59.8041 51.558 59.2693 52.2913 59.1268C52.3607 59.1133 52.43 59.0998 52.5013 59.0962C52.9432 59.0412 54.0148 58.946 54.4525 59.2929C54.5865 59.4006 54.665 59.5396 54.6859 59.7001C54.7442 60.2647 53.8738 60.8658 53.0512 61.0257C52.9144 61.0626 52.7936 61.0758 52.6609 61.081Z" fill="#414042"/>
<path d="M52.6822 61.5087C50.9494 61.5884 50.1552 61.2594 50.1082 60.4355C50.0541 59.469 51.5169 58.7938 52.4421 58.686C53.195 58.5911 54.197 58.5608 54.7095 58.9754C54.9303 59.1588 55.0696 59.3991 55.0918 59.6725C55.1686 60.4906 54.1349 61.2572 53.1141 61.4556C52.9853 61.4806 52.8328 61.4897 52.6822 61.5087ZM50.9519 60.3846C50.9627 60.5985 51.6431 60.7131 52.6314 60.6649C53.5147 60.6064 54.2842 60.0146 54.2539 59.7531C54.2462 59.7134 54.2266 59.6658 54.1793 59.6339C54.0097 59.5023 53.438 59.418 52.5326 59.522C52.4732 59.5336 52.4137 59.5451 52.3641 59.5547C51.5991 59.6932 50.9412 60.1707 50.9519 60.3846Z" fill="#414042"/>
<path d="M78.3948 49.5584C78.4928 49.745 77.9279 50.2251 77.126 50.5969C76.328 50.9886 75.6043 51.1807 75.5239 51.0318C75.4435 50.8828 75.8455 50.1465 76.6121 49.6992C77.3788 49.252 78.2969 49.3718 78.3948 49.5584Z" fill="#414042"/>
<path d="M75.1524 51.2377C74.8818 50.7452 75.6116 49.7908 76.3981 49.3397C76.6563 49.1867 76.9341 49.0813 77.2413 49.0216C77.6575 48.9407 78.5249 48.9057 78.768 49.3624C78.8346 49.4935 78.8536 49.6441 78.8012 49.7982C78.6261 50.3259 77.6156 50.8411 77.3138 50.9821C76.8057 51.2248 76.3176 51.4123 75.9608 51.4816C75.8103 51.5006 75.3445 51.5911 75.1524 51.2377ZM76.8278 50.0687C76.5974 50.206 76.4123 50.3654 76.2769 50.5151C76.4872 50.4331 76.7154 50.3373 76.9516 50.2297C77.2533 50.0888 77.4838 49.9515 77.6646 49.8237C77.3993 49.8342 77.0761 49.9176 76.8278 50.0687Z" fill="#414042"/>
<path d="M75.1046 51.2573C74.7988 50.6894 75.6476 49.7119 76.3765 49.2823C76.6348 49.1292 76.9224 49.0219 77.2395 48.9602C77.6756 48.8755 78.5647 48.8466 78.8235 49.3311C78.9019 49.4702 78.9148 49.6425 78.8645 49.8065C78.6893 50.3342 77.7382 50.8379 77.3432 51.0278C76.835 51.2706 76.3351 51.45 75.9784 51.5194C75.5343 51.616 75.2478 51.5174 75.1046 51.2573Z" fill="#414042"/>
<path d="M74.7334 51.4632C74.2825 50.6252 75.267 49.4465 76.1628 48.9227C76.4785 48.7482 76.8039 48.6233 77.1508 48.5559C77.3093 48.525 78.7223 48.2812 79.1889 49.147C79.3182 49.3892 79.3424 49.6725 79.2518 49.9472C79.0908 50.4413 78.4981 50.9371 77.5115 51.4168C76.9755 51.6753 76.4379 51.8723 76.0415 51.9494C75.217 52.0994 74.8727 51.7035 74.7334 51.4632ZM76.5924 49.6517C75.8734 50.0794 75.3644 50.8469 75.4781 51.0613C75.5389 51.1626 75.731 51.1458 75.8896 51.115C76.2067 51.0534 76.6868 50.8778 77.1473 50.6546C77.9553 50.261 78.385 49.8792 78.4495 49.6815C78.4696 49.6262 78.4599 49.5767 78.4423 49.5389C78.3462 49.3622 77.8081 49.292 77.3126 49.3883C77.0629 49.4266 76.8149 49.5262 76.5924 49.6517Z" fill="#414042"/>
<path d="M68.016 45.5802C67.8458 45.5515 67.8497 44.8308 68.0265 43.9943C68.2033 43.1577 68.5276 42.4982 68.7431 42.5489C68.9568 42.5896 69.3206 43.4034 69.0805 44.2317C68.8267 45.042 68.1861 45.6088 68.016 45.5802Z" fill="#414042"/>
<path d="M67.9307 45.9875L67.6995 45.909L67.5993 45.7639C67.3362 45.3626 67.516 44.33 67.6074 43.9009C67.7354 43.2898 68.0342 42.2341 68.609 42.1224L68.7397 42.1073L68.8248 42.1216C69.0068 42.1582 69.1664 42.2917 69.3018 42.5122C69.5451 42.9174 69.6956 43.639 69.482 44.3387C69.224 45.1807 68.5628 45.9058 68.1366 45.9886C68.0673 46.0021 68.0059 46.0037 67.9307 45.9875ZM68.444 44.0777C68.385 44.3565 68.3481 44.5899 68.3333 44.778C68.4629 44.5985 68.5929 44.3675 68.6835 44.0928C68.7762 43.7765 68.7562 43.4616 68.7019 43.2356C68.6097 43.4489 68.5191 43.7237 68.444 44.0777Z" fill="#414042"/>
<path d="M67.9202 46.041L67.6673 45.9565L67.5632 45.7916C67.3001 45.3902 67.4518 44.4249 67.5636 43.8889C67.6977 43.256 68.0044 42.1885 68.6089 42.071L68.8347 42.0683C69.0384 42.111 69.2079 42.2426 69.3453 42.473C69.6004 42.8862 69.7548 43.6275 69.5351 44.349C69.265 45.2345 68.59 45.9417 68.144 46.0284C68.0667 46.0537 67.9954 46.0573 67.9202 46.041Z" fill="#414042"/>
<path d="M67.7934 46.4462L67.408 46.3154L67.2175 46.0233C66.9544 45.6219 66.9327 44.8754 67.1563 43.8035C67.4306 42.516 67.8878 41.7998 68.6014 41.6611L68.6113 41.6592L68.837 41.6565L68.93 41.6589C69.1436 41.6997 69.4597 41.8439 69.7167 42.2671C69.9914 42.7279 70.2185 43.5785 69.9522 44.4839C69.656 45.4465 68.8909 46.3254 68.2369 46.4525C68.0981 46.4795 67.9754 46.4828 67.7934 46.4462ZM68.6919 42.4971C68.4838 42.5376 68.1762 43.019 67.973 43.9841C67.7577 44.9927 67.8364 45.4505 67.911 45.5697L67.9958 45.6355C68.2193 45.6743 68.8679 45.0957 69.1259 44.2537C69.3073 43.6528 69.178 43.0403 68.9798 42.7086C68.9071 42.5993 68.8422 42.5296 68.775 42.5015L68.6919 42.4971Z" fill="#414042"/>
<path d="M63.3153 45.5785C63.1469 45.6113 62.8474 44.9701 62.6539 44.1336C62.4624 43.3069 62.4781 42.5942 62.7041 42.54C62.9221 42.4976 63.602 43.0854 63.7261 43.9354C63.8384 44.7775 63.4819 45.5359 63.3153 45.5785Z" fill="#414042"/>
<path d="M62.2415 44.2344C62.17 43.9192 61.954 42.8607 62.2535 42.3911C62.3413 42.2609 62.4666 42.1646 62.6251 42.1338C62.8035 42.0991 63.0091 42.1517 63.2142 42.3072C63.5731 42.5666 64.0315 43.1254 64.1382 43.8863C64.2623 44.7363 63.9512 45.887 63.4081 46.0028L63.3981 46.0047C63.2079 46.0314 62.6808 46.1236 62.2415 44.2344ZM63.0564 44.0348C63.1222 44.3203 63.2 44.5623 63.2664 44.7448C63.317 44.5293 63.3382 44.268 63.2942 43.9886C63.2485 43.6478 63.0817 43.3717 62.9342 43.1947C62.943 43.3987 62.9791 43.6899 63.0564 44.0348Z" fill="#414042"/>
<path d="M62.1801 44.2359C62.0813 43.8335 61.8967 42.8306 62.1943 42.3511C62.2901 42.2091 62.4252 42.1108 62.5918 42.0682C62.79 42.0296 62.9976 42.0921 63.2244 42.2537C63.5932 42.5111 64.0554 43.0898 64.1641 43.8606C64.2939 44.7404 63.9767 45.9127 63.394 46.0363L63.384 46.0382C63.2076 46.0828 62.6408 46.1827 62.1801 44.2359Z" fill="#414042"/>
<path d="M61.7775 44.3347C61.646 43.7638 61.4734 42.7175 61.8509 42.1196C62.0106 41.8829 62.2451 41.7139 62.5226 41.6599C62.8298 41.6002 63.1541 41.6812 63.4874 41.9146C63.941 42.2378 64.472 42.9059 64.6058 43.8055C64.7411 44.7665 64.4341 46.2558 63.4965 46.4586L63.4866 46.4605C62.446 46.6628 62.0137 45.3378 61.7775 44.3347ZM62.5572 42.5788C62.4154 42.8018 62.4259 43.4374 62.5943 44.1451C62.8439 45.2176 63.1464 45.6627 63.3149 45.63L63.3958 46.0462L63.3149 45.63C63.5329 45.5876 63.8759 44.7599 63.7557 43.9296C63.6641 43.2995 63.2826 42.8183 62.9847 42.6088C62.8545 42.521 62.7439 42.4808 62.6745 42.4943C62.6349 42.502 62.5892 42.5314 62.5572 42.5788Z" fill="#414042"/>
<path d="M57.7572 46.3503C57.2243 45.6723 56.9428 45.0174 57.1236 44.8897C57.3045 44.7619 58.1801 45.034 58.6494 45.7552C59.1187 46.4765 59.3805 47.1352 59.2335 47.2255C59.0884 47.3257 58.2802 47.0303 57.7572 46.3503Z" fill="#414042"/>
<path d="M57.4191 46.6217C57.2146 46.3632 56.5699 45.4807 56.6481 44.9307C56.6688 44.7724 56.7547 44.6323 56.872 44.5478L57.011 44.4693L57.1002 44.452C57.5461 44.3653 58.4807 44.7287 58.9951 45.5235C59.2307 45.8891 59.7763 46.7909 59.6727 47.2635L59.6042 47.4928L59.4572 47.5831L59.2766 47.6594C58.8505 47.7422 57.9658 47.3177 57.4191 46.6217ZM58.0872 46.0908C58.2642 46.3135 58.4712 46.4789 58.6587 46.5968C58.5744 46.428 58.4508 46.2155 58.3036 45.987C58.1131 45.6949 57.8508 45.5094 57.6336 45.3973C57.7217 45.5859 57.8709 45.8243 58.0872 46.0908Z" fill="#414042"/>
<path d="M57.3836 46.6491C57.1221 46.3091 56.5188 45.4803 56.605 44.9184C56.6317 44.7384 56.7175 44.5983 56.8527 44.5L57.0016 44.4197L57.1007 44.4004C57.6161 44.3002 58.5523 44.725 59.051 45.492C59.3554 45.947 59.8399 46.799 59.7462 47.2697L59.6716 47.5208L59.5067 47.6248L59.3063 47.7049C58.8524 47.8034 57.9578 47.3808 57.3836 46.6491Z" fill="#414042"/>
<path d="M57.0535 46.9088C56.6031 46.3381 56.0829 45.5136 56.1815 44.8568C56.2286 44.57 56.3745 44.3154 56.6468 44.1288L56.7957 44.0484L57.0198 43.9843C57.7828 43.8359 58.8509 44.4099 59.4066 45.2584C60.0056 46.1704 60.2552 46.8726 60.1494 47.3869L60.0225 47.792L59.6531 48.0078L59.3833 48.1014C58.7133 48.2522 57.6728 47.714 57.0535 46.9088ZM59.3289 47.1864C59.3655 47.0044 59.1901 46.4729 58.6952 45.7258C58.2711 45.078 57.5086 44.7531 57.1816 44.8167L57.0943 44.8439C57.0585 44.8715 57.0266 44.9188 57.0183 44.9821C56.9773 45.2472 57.2613 45.8091 57.7136 46.3897C58.2052 47.014 58.9341 47.3248 59.1975 47.3045L59.3126 47.2615L59.3289 47.1864Z" fill="#414042"/>
<path d="M51.0735 54.3443C51.1044 54.1327 51.8531 54.0694 52.7334 54.2068C53.6038 54.3462 54.2994 54.5915 54.2807 54.7597C54.2521 54.9298 53.4719 55.3077 52.5853 55.2435C51.6967 55.1694 51.0328 54.558 51.0735 54.3443Z" fill="#414042"/>
<path d="M52.5531 55.6612C51.7813 55.6055 51.1242 55.1882 50.8371 54.8223C50.6876 54.6354 50.6312 54.4509 50.6598 54.2808C50.6866 54.1008 50.8245 53.858 51.3002 53.7655C51.6668 53.6943 52.2133 53.7012 52.7969 53.7934C53.3587 53.8796 54.3356 54.0908 54.5911 54.4526L54.7127 54.6552L54.6841 54.8253C54.602 55.3555 53.6267 55.5759 53.4285 55.6144C53.1392 55.6604 52.8342 55.6785 52.5531 55.6612ZM52.6696 54.6204C52.3294 54.5631 52.0285 54.5496 51.8127 54.5504C52.0101 54.6663 52.2807 54.7885 52.6151 54.8161C52.8565 54.8411 53.1081 54.8128 53.3539 54.7547C53.1601 54.7101 52.9347 54.6614 52.6696 54.6204Z" fill="#414042"/>
<path d="M52.543 55.7145C51.7493 55.6528 51.0942 55.2453 50.7915 54.8517C50.6401 54.6548 50.5699 54.4525 50.6046 54.2606C50.6373 54.0589 50.7832 53.8042 51.2887 53.706C51.6652 53.6328 52.2136 53.6496 52.8071 53.7399C53.3689 53.8261 54.3657 54.0335 54.6467 54.4211L54.7821 54.6416L54.7474 54.8335C54.6593 55.3854 53.7355 55.6061 53.4481 55.662C53.1389 55.7118 52.8458 55.7379 52.543 55.7145Z" fill="#414042"/>
<path d="M52.5111 56.1322C51.5295 56.0556 50.7918 55.5408 50.4516 55.1132C50.1626 54.7375 50.1406 54.4127 50.1813 54.199C50.2201 53.9755 50.3972 53.4577 51.1999 53.3017C51.626 53.2189 52.214 53.228 52.8609 53.3285C53.9845 53.5009 54.6879 53.7859 54.9964 54.2092L55.2103 54.5688L55.153 54.909C55.0241 55.6745 54.0741 55.9723 53.5192 56.0802C53.1704 56.1377 52.8357 56.1616 52.5111 56.1322ZM54.2931 54.6648C54.2204 54.5555 53.794 54.3196 52.7337 54.1554C51.8415 54.01 51.055 54.0909 51.02 54.3343C51.0057 54.4193 51.0666 54.5206 51.1216 54.5922C51.3556 54.8964 51.916 55.24 52.5849 55.2951C52.8362 55.3182 53.0997 55.2978 53.3673 55.2458C53.9421 55.1341 54.2997 54.9103 54.3321 54.76L54.3363 54.7284L54.2931 54.6648Z" fill="#414042"/>
<path d="M74.5539 45.1422C74.7334 45.2718 74.4071 45.9215 73.8255 46.5796C73.2556 47.2457 72.675 47.698 72.533 47.6022C72.3989 47.4945 72.4529 46.6613 72.9655 45.9652C73.4861 45.2572 74.3725 45.0026 74.5539 45.1422Z" fill="#414042"/>
<path d="M72.4256 48.0551L72.2797 47.9395C71.8203 47.5865 72.1017 46.4417 72.6283 45.7119C73.0751 45.1006 73.7342 44.7874 74.1603 44.7045C74.4378 44.6506 74.6594 44.6795 74.8053 44.7951C74.9256 44.8849 75.004 45.0239 75.015 45.1863C75.0714 45.741 74.3658 46.6083 74.1467 46.8566C73.9276 47.1049 73.1925 47.9266 72.697 48.0229L72.4256 48.0551ZM73.3107 46.2067C73.1472 46.4236 73.047 46.6487 72.9825 46.8464C73.1298 46.7046 73.311 46.5254 73.5042 46.3027C73.7233 46.0545 73.885 45.8276 73.9948 45.652C73.7487 45.7616 73.4982 45.9542 73.3107 46.2067Z" fill="#414042"/>
<path d="M72.4152 48.1085L72.2475 47.9868C71.7644 47.6179 72.0382 46.4334 72.5827 45.6899C73.0375 45.0667 73.7064 44.7516 74.1425 44.6668C74.4298 44.611 74.6633 44.6479 74.8309 44.7695C74.9631 44.8673 75.0434 45.0162 75.0563 45.1885C75.1127 45.7432 74.4608 46.5693 74.1759 46.9023C73.8891 47.2255 73.184 47.9899 72.6984 48.0843L72.4152 48.1085Z" fill="#414042"/>
<path d="M72.294 48.5434L71.9924 48.314C71.2213 47.7337 71.6512 46.2412 72.2455 45.4366C72.7642 44.7187 73.5264 44.3546 74.0715 44.2486C74.5868 44.1485 74.9127 44.2908 75.0941 44.4304C75.3209 44.592 75.4641 44.8521 75.4902 45.1453C75.5579 45.8109 74.9952 46.6196 74.5071 47.1773C73.8177 47.9695 73.2451 48.4099 72.7992 48.4966L72.7794 48.5005L72.294 48.5434ZM72.9279 45.9313C72.4153 46.6275 72.3294 47.5081 72.4989 47.6396L72.6374 47.6642C72.8237 47.6177 73.2491 47.319 73.8547 46.6253C74.3428 46.0677 74.6627 45.4913 74.6344 45.2397C74.6228 45.1802 74.6052 45.1425 74.5678 45.1086C74.5067 45.0588 74.382 45.0522 74.2135 45.0849C73.835 45.1482 73.2751 45.4422 72.9279 45.9313Z" fill="#414042"/>
<path d="M53.2098 48.8798C53.3276 48.6923 54.0332 48.9357 54.7711 49.399C55.5091 49.8624 56.0291 50.3681 55.9333 50.5101C55.8375 50.6522 54.9739 50.7069 54.196 50.3027C53.4261 49.8867 53.0801 49.0592 53.2098 48.8798Z" fill="#414042"/>
<path d="M53.998 50.66C53.3228 50.3079 52.9025 49.68 52.7941 49.228C52.7379 48.992 52.7608 48.7922 52.8547 48.6403C52.9106 48.5574 53.022 48.4432 53.2202 48.4046C53.7653 48.2987 54.7086 48.8661 54.9889 49.0379C55.4585 49.3374 56.2573 49.9021 56.3558 50.356L56.3803 50.5878L56.2845 50.7298C56.1986 50.8699 56.0496 50.9503 55.8316 50.9927C55.4055 51.0755 54.6633 51.0141 53.998 50.66ZM54.3881 49.9157C54.6389 50.0418 54.89 50.1164 55.1135 50.1552C54.9676 50.0396 54.7763 49.902 54.5415 49.7522C54.2357 49.5545 53.975 49.4304 53.7735 49.3461C53.8932 49.5388 54.1019 49.7657 54.3881 49.9157Z" fill="#414042"/>
<path d="M53.9761 50.7053C53.289 50.3452 52.8569 49.7093 52.7446 49.2375C52.6846 48.9817 52.7055 48.772 52.8173 48.6063C52.9051 48.4761 53.0521 48.3858 53.2206 48.353C53.7954 48.2413 54.7505 48.8167 55.0308 48.9885C55.5004 49.288 56.311 49.8606 56.4134 50.3344L56.4437 50.5959L56.3319 50.7616C56.238 50.9136 56.0811 51.0058 55.8432 51.052C55.3973 51.1387 54.6513 51.0574 53.9761 50.7053Z" fill="#414042"/>
<path d="M53.7819 51.0825C52.923 50.6323 52.4658 49.8676 52.334 49.3481C52.2118 48.8782 52.3363 48.5661 52.464 48.3767C52.6157 48.1518 52.8541 48.0026 53.1316 47.9487C53.7658 47.8254 54.6326 48.2637 55.2523 48.6472C56.6729 49.5538 56.7868 50.087 56.8273 50.2951L56.8765 50.7072L56.675 50.9932C56.5173 51.2398 56.2591 51.3928 55.9122 51.4603C55.4484 51.5607 54.5953 51.5106 53.7819 51.0825ZM55.9891 50.4272C55.9621 50.2884 55.6731 49.9127 54.7931 49.3535C54.0196 48.8662 53.308 48.6446 53.1624 48.8477C53.1145 48.9187 53.1276 49.0396 53.1568 49.1368C53.2498 49.5095 53.6093 50.0361 54.172 50.3381C54.94 50.7442 55.8349 50.7451 55.9786 50.532L56.0025 50.4965L55.9891 50.4272Z" fill="#414042"/>
<path d="M68.4341 70.7471C69.3458 70.5699 69.6275 69.7438 69.4502 68.8321L67.7801 60.2401C67.6029 59.3284 67.0323 58.668 66.1206 58.8452C65.2089 59.0224 64.9272 59.8485 65.1044 60.7602L66.7745 69.3522C66.9517 70.2639 67.5224 70.9243 68.4341 70.7471Z" fill="#414042"/>
<path d="M120.746 103.527C121.501 107.411 118.963 111.175 115.078 111.93L43.2995 125.883C39.4148 126.638 35.6509 124.099 34.8958 120.214L27.7222 83.3093C26.9671 79.4246 29.5059 75.6606 33.3906 74.9055L105.169 60.9532C109.054 60.1981 112.818 62.7369 113.573 66.6217L120.746 103.527ZM110.926 67.3419C110.436 64.8247 107.998 63.1801 105.491 63.6675L34.1089 77.5427C31.5918 78.032 29.9471 80.4703 30.4364 82.9874L37.531 119.486C38.0203 122.003 40.4586 123.648 42.9757 123.159L114.358 109.283C116.875 108.794 118.51 106.358 118.02 103.841L110.926 67.3419Z" fill="#414042"/>
<path fill-rule="evenodd" clip-rule="evenodd" d="M26.7858 92.8298C20.0768 94.1339 18.2261 98.4223 19.1334 103.09C20.0407 107.758 23.363 111.04 30.0721 109.736L26.7858 92.8298Z" fill="#414042"/>
<path fill-rule="evenodd" clip-rule="evenodd" d="M121.294 92.0047C128.003 90.7005 129.854 86.4121 128.947 81.7445C128.039 77.0769 124.717 73.794 118.008 75.0981L121.294 92.0047Z" fill="#414042"/>
<path fill-rule="evenodd" clip-rule="evenodd" d="M117.924 153.451C118.325 155.512 116.984 157.5 114.923 157.901L60.6651 168.448C58.6038 168.848 56.6154 167.507 56.2147 165.446L49.8405 132.653C49.4398 130.592 50.7811 128.604 52.8424 128.203L107.1 117.656C109.161 117.256 111.15 118.597 111.55 120.658L117.924 153.451Z" fill="#414042"/>
<path d="M65.7385 60.6369C68.3597 60.3125 70.2297 57.923 69.9054 55.3018C69.579 52.6707 67.1914 50.8105 64.5683 51.125C61.9372 51.4513 60.077 53.8389 60.4014 56.4601C60.7197 59.103 63.1074 60.9632 65.7385 60.6369ZM63.0562 56.1498C62.9139 54.9947 63.7373 53.9399 64.8924 53.7976C66.0475 53.6554 67.1023 54.4788 67.2445 55.6339C67.3868 56.7889 66.5634 57.8437 65.4083 57.986C64.2513 58.1183 63.1965 57.2949 63.0562 56.1498Z" fill="#414042"/>
<path fill-rule="evenodd" clip-rule="evenodd" d="M84.0773 130.061C90.424 129.856 95.1914 135.388 94.7197 142.432C94.256 149.464 88.724 155.342 82.3891 155.555C76.0424 155.76 71.2749 150.228 71.7466 143.184C72.2103 136.152 77.7325 130.276 84.0773 130.061Z" fill="#ED1B2F"/>
<path fill-rule="evenodd" clip-rule="evenodd" d="M82.3868 139.512L80.9003 139.801L80.4052 137.254L81.9016 136.963L81.1889 133.296L84.1421 132.722L84.8548 136.389L89.4233 135.501L89.9184 138.048L85.3499 138.936L86.4093 144.386C86.523 144.971 86.7792 146.289 87.1153 146.748C87.3099 147.009 87.5604 147.186 87.8767 147.279C88.2978 147.382 88.7732 147.341 89.1894 147.26C90.0913 147.085 90.769 146.604 91.4688 146.077L91.5285 146.384L92.039 149.01L91.6995 149.169C90.8679 149.546 90.0011 149.848 89.0992 150.024C85.9479 150.636 84.236 149.025 83.6658 146.092L82.3868 139.512ZM82.2132 151.105L79.2402 151.683L76.5818 138.007L79.5549 137.429L82.2132 151.105Z" fill="white"/>
<path fill-rule="evenodd" clip-rule="evenodd" d="M77.2013 133.259C78.2022 133.064 79.169 133.699 79.3577 134.67C79.5465 135.641 78.8861 136.582 77.8851 136.777C76.8842 136.971 75.9194 136.346 75.7307 135.375C75.5301 134.396 76.2004 133.453 77.2013 133.259Z" fill="white"/>
<path d="M99.1556 103.085C98.1185 102.299 96.6967 101.228 94.4769 101.66C92.1381 102.114 91.176 103.566 90.4054 104.734C89.7466 105.737 89.3094 106.398 88.1004 106.633C86.9112 106.864 86.2582 106.415 85.272 105.732C84.12 104.938 82.682 103.942 80.3532 104.395C78.054 104.842 77.1136 106.3 76.3549 107.476C75.66 108.557 75.2471 109.131 74.1471 109.345C72.9281 109.582 72.2653 109.135 71.2592 108.456C70.0973 107.664 68.6514 106.68 66.3027 107.136C63.9441 107.595 62.972 109.049 62.1816 110.221C61.503 111.227 61.0479 111.901 59.8191 112.14C58.62 112.373 57.9671 111.924 56.9808 111.242C55.8288 110.448 54.3908 109.452 52.062 109.904L52.5879 112.61C53.787 112.377 54.4399 112.826 55.4262 113.508C56.5781 114.303 58.0142 115.288 60.3431 114.836C62.7016 114.377 63.6737 112.923 64.4641 111.751C65.1427 110.745 65.5898 110.083 66.8286 109.842C68.0574 109.603 68.7104 110.052 69.7164 110.731C70.8783 111.523 72.3243 112.507 74.6729 112.05C76.9721 111.603 77.9125 110.145 78.6732 108.979C79.368 107.898 79.781 107.324 80.881 107.11C82.0702 106.879 82.7231 107.328 83.7094 108.011C84.8614 108.805 86.2974 109.791 88.6263 109.338C90.965 108.883 91.9272 107.431 92.6978 106.263C93.3566 105.261 93.7937 104.6 95.0028 104.365C95.9739 104.176 96.5303 104.552 97.5044 105.278C98.5416 106.063 99.9633 107.134 102.183 106.703L101.659 104.007C100.686 104.186 100.13 103.811 99.1556 103.085Z" fill="#414042"/>
<path d="M46.3319 87.9915C46.0544 88.0454 45.7781 87.8934 45.6647 87.6275C45.5436 87.322 45.692 86.9743 45.9975 86.8532C53.5672 83.8391 55.9371 79.1001 55.9572 79.0448C56.0954 78.7505 56.4524 78.6297 56.7566 78.766C57.0509 78.9042 57.1717 79.2612 57.0335 79.5555C56.9314 79.7708 54.4373 84.7704 46.4371 87.9505C46.4013 87.978 46.3617 87.9857 46.3319 87.9915Z" fill="#414042" stroke="#414042" stroke-miterlimit="10"/>
<path d="M98.1017 77.9285C98.3792 77.8745 98.5785 77.6301 98.584 77.341C98.5819 77.0124 98.314 76.7456 97.9853 76.7478C89.8378 76.7888 85.8652 73.2827 85.8258 73.2389C85.5875 73.0179 85.2111 73.0396 84.9901 73.278C84.769 73.5163 84.7908 73.8926 85.0291 74.1137C85.2045 74.275 89.3898 77.9764 97.9987 77.9279C98.0224 77.9439 98.0621 77.9362 98.1017 77.9285Z" fill="#414042" stroke="#414042" stroke-miterlimit="10"/>
<path d="M79.4375 89.6815C80.3313 94.2797 84.7817 97.2816 89.3701 96.3897C93.9683 95.4959 96.9702 91.0454 96.0764 86.4472C95.1826 81.8489 90.734 78.857 86.1358 79.7508C81.5455 80.6328 78.5437 85.0832 79.4375 89.6815ZM80.9042 89.3964C80.1683 85.6107 82.6452 81.9514 86.4209 81.2175C90.2065 80.4816 93.8639 82.9486 94.5998 86.7342C95.3356 90.5198 92.8607 94.1891 89.085 94.923C85.3073 95.6471 81.64 93.182 80.9042 89.3964Z" fill="#414042"/>
<path d="M84.0255 88.7895C84.4262 90.8508 86.4265 92.2001 88.4878 91.7994C90.5491 91.3987 91.9003 89.4083 91.4977 87.3371C91.097 85.2758 89.0967 83.9266 87.0354 84.3272C84.9741 84.7279 83.6249 86.7283 84.0255 88.7895Z" fill="#414042"/>
<path d="M51.372 95.1368C52.2659 99.735 56.7163 102.737 61.3047 101.845C65.9029 100.951 68.9048 96.5008 68.011 91.9025C67.1172 87.3043 62.6686 84.3123 58.0704 85.2061C53.4801 86.0881 50.4782 90.5385 51.372 95.1368ZM52.8387 94.8517C52.1029 91.0661 54.5798 87.4067 58.3555 86.6728C62.1411 85.9369 65.7985 88.4039 66.5344 92.1895C67.2702 95.9752 64.8052 99.6425 61.0196 100.378C57.232 101.104 53.5746 98.6373 52.8387 94.8517Z" fill="#414042"/>
<path d="M55.9503 94.2468C56.351 96.3081 58.3514 97.6574 60.4127 97.2567C62.4739 96.856 63.8251 94.8656 63.4225 92.7944C63.0218 90.7331 61.0215 89.3838 58.9602 89.7845C56.8989 90.1852 55.5497 92.1855 55.9503 94.2468Z" fill="#414042"/>
<path d="M137.708 153.318C139.652 152.529 140.936 151.991 142.218 151.444C143.492 150.908 144.764 150.363 146.701 149.585L145.909 147.631C143.965 148.42 142.681 148.958 141.399 149.505C140.125 150.041 138.851 150.576 136.916 151.364L137.708 153.318Z" fill="#414042"/>
<path d="M134.02 145.139L141.657 139.139L140.469 137.416L132.841 143.414L134.02 145.139Z" fill="#414042"/>
<path d="M128.829 139.545L134.477 131.67L132.703 130.534L127.057 138.419L128.829 139.545Z" fill="#414042"/>
<path d="M139.35 163.304C139.201 159.733 141.978 156.715 145.558 156.564C149.129 156.415 152.159 159.199 152.298 162.772C152.414 165.537 150.777 167.963 148.374 168.986L148.06 166.208C149.109 165.469 149.765 164.241 149.706 162.875C149.618 160.732 147.812 159.057 145.659 159.146C143.516 159.234 141.853 161.048 141.941 163.191C142.007 164.752 142.982 166.064 144.345 166.621L144.659 169.399C141.738 168.866 139.476 166.385 139.35 163.304Z" fill="#414042"/>
<path d="M116.165 124.184L115.718 121.885C136.295 127.48 144.366 135.353 149.892 156.904L149.931 157.792L149.04 158.181C147.369 158.948 145.457 157.314 144.232 157.676C145.213 157.382 146.492 157.031 147.645 156.56C142.334 136.54 135.298 129.546 116.165 124.184Z" fill="#414042"/>
<path d="M117.835 132.776C126.487 134.323 134.648 137.735 141.488 158.641C142.641 158.17 143.436 157.923 144.37 157.649C143.165 158.006 142.536 160.381 141.006 161.079L139.88 161.586L139.861 160.376C136.266 148.919 132.8 138.125 118.277 135.045L117.835 132.776Z" fill="#414042"/>
<path d="M115.437 120.438L124.491 123.049C125.187 123.243 125.436 123.997 125.284 124.695L122.38 136.952C122.218 137.652 121.836 138.015 121.152 137.829L118.658 137.008L115.437 120.438Z" fill="#414042"/>
<path d="M37.7608 163.85L28.4322 161.148L28.8887 159.105L38.2075 161.809L37.7608 163.85Z" fill="#414042"/>
<path d="M40.4781 156.719L32.2915 151.533L33.5105 149.815L41.6991 155.011L40.4781 156.719Z" fill="#414042"/>
<path d="M46.465 137.732L46.0181 135.433C29.0358 148.33 24.5014 158.652 27.451 180.705L27.7474 181.542L28.7194 181.569C30.5563 181.654 31.7167 179.423 32.9885 179.299C31.9683 179.395 30.6509 179.548 29.4055 179.543C26.8299 158.991 30.7342 149.871 46.465 137.732Z" fill="#414042"/>
<path d="M48.1353 146.324C40.6932 151 34.405 157.221 35.894 179.166C34.6486 179.162 33.8186 179.23 32.8499 179.326C34.1019 179.206 35.5742 181.172 37.2548 181.247L38.488 181.295L38.0526 180.166C37.0937 168.196 36.2639 156.89 48.5764 148.594L48.1353 146.324Z" fill="#414042"/>
<path d="M45.7368 133.986L38.3203 139.799C37.7477 140.239 37.7988 141.032 38.2015 141.622L45.4855 151.899C45.8981 152.488 46.3881 152.68 46.9527 152.252L48.9576 150.556L45.7368 133.986Z" fill="#414042"/>
</g>
<defs>
<filter id="filter0_f_997_9782" x="-5.6001" y="130.4" width="168" height="64" filterUnits="userSpaceOnUse" color-interpolation-filters="sRGB">
<feFlood flood-opacity="0" result="BackgroundImageFix"/>
<feBlend mode="normal" in="SourceGraphic" in2="BackgroundImageFix" result="shape"/>
<feGaussianBlur stdDeviation="10" result="effect1_foregroundBlur_997_9782"/>
</filter>
<clipPath id="clip0_997_9782">
<rect width="160" height="160" fill="white"/>
</clipPath>
</defs>
</svg>
